TITLE ""
FILE "P1Q_t_0378-0387.mp3" MP3
  TRACK 01 AUDIO
    TITLE "P1Q_t_0378-0387_01"
    INDEX 01 00:00:00
  TRACK 02 AUDIO
    TITLE "P1Q_t_0378-0387_02"
    INDEX 01 00:01:25
  TRACK 03 AUDIO
    TITLE "P1Q_t_0378-0387_03"
    INDEX 01 00:01:47
  TRACK 04 AUDIO
    TITLE "P1Q_t_0378-0387_04"
    INDEX 01 00:03:71
  TRACK 05 AUDIO
    TITLE "P1Q_t_0378-0387_05"
    INDEX 01 00:04:12
  TRACK 06 AUDIO
    TITLE "P1Q_t_0378-0387_06"
    INDEX 01 00:09:01
  TRACK 07 AUDIO
    TITLE "P1Q_t_0378-0387_07"
    INDEX 01 00:09:48
  TRACK 08 AUDIO
    TITLE "P1Q_t_0378-0387_08"
    INDEX 01 00:10:62
  TRACK 09 AUDIO
    TITLE "P1Q_t_0378-0387_09"
    INDEX 01 00:11:08
  TRACK 10 AUDIO
    TITLE "P1Q_t_0378-0387_10"
    INDEX 01 00:13:58
  TRACK 11 AUDIO
    TITLE "P1Q_t_0378-0387_11"
    INDEX 01 00:14:03
  TRACK 12 AUDIO
    TITLE "P1Q_t_0378-0387_12"
    INDEX 01 00:19:37
  TRACK 13 AUDIO
    TITLE "P1Q_t_0378-0387_13"
    INDEX 01 00:20:07
  TRACK 14 AUDIO
    TITLE "P1Q_t_0378-0387_14"
    INDEX 01 00:21:18
  TRACK 15 AUDIO
    TITLE "P1Q_t_0378-0387_15"
    INDEX 01 00:21:38
  TRACK 16 AUDIO
    TITLE "P1Q_t_0378-0387_16"
    INDEX 01 00:24:11
  TRACK 17 AUDIO
    TITLE "P1Q_t_0378-0387_17"
    INDEX 01 00:24:30
  TRACK 18 AUDIO
    TITLE "P1Q_t_0378-0387_18"
    INDEX 01 00:30:47
  TRACK 19 AUDIO
    TITLE "P1Q_t_0378-0387_19"
    INDEX 01 00:31:19
  TRACK 20 AUDIO
    TITLE "P1Q_t_0378-0387_20"
    INDEX 01 00:32:51
  TRACK 21 AUDIO
    TITLE "P1Q_t_0378-0387_21"
    INDEX 01 00:33:00
  TRACK 22 AUDIO
    TITLE "P1Q_t_0378-0387_22"
    INDEX 01 00:36:10
  TRACK 23 AUDIO
    TITLE "P1Q_t_0378-0387_23"
    INDEX 01 00:36:30
  TRACK 24 AUDIO
    TITLE "P1Q_t_0378-0387_24"
    INDEX 01 00:41:13
  TRACK 25 AUDIO
    TITLE "P1Q_t_0378-0387_25"
    INDEX 01 00:41:62
  TRACK 26 AUDIO
    TITLE "P1Q_t_0378-0387_26"
    INDEX 01 00:43:20
  TRACK 27 AUDIO
    TITLE "P1Q_t_0378-0387_27"
    INDEX 01 00:43:41
  TRACK 28 AUDIO
    TITLE "P1Q_t_0378-0387_28"
    INDEX 01 00:45:60
  TRACK 29 AUDIO
    TITLE "P1Q_t_0378-0387_29"
    INDEX 01 00:46:06
  TRACK 30 AUDIO
    TITLE "P1Q_t_0378-0387_30"
    INDEX 01 00:51:43
  TRACK 31 AUDIO
    TITLE "P1Q_t_0378-0387_31"
    INDEX 01 00:52:13
  TRACK 32 AUDIO
    TITLE "P1Q_t_0378-0387_32"
    INDEX 01 00:53:26
  TRACK 33 AUDIO
    TITLE "P1Q_t_0378-0387_33"
    INDEX 01 00:53:54
  TRACK 34 AUDIO
    TITLE "P1Q_t_0378-0387_34"
    INDEX 01 00:55:05
  TRACK 35 AUDIO
    TITLE "P1Q_t_0378-0387_35"
    INDEX 01 00:55:25
  TRACK 36 AUDIO
    TITLE "P1Q_t_0378-0387_36"
    INDEX 01 00:59:44
  TRACK 37 AUDIO
    TITLE "P1Q_t_0378-0387_37"
    INDEX 01 01:00:20
  TRACK 38 AUDIO
    TITLE "P1Q_t_0378-0387_38"
    INDEX 01 01:01:35
  TRACK 39 AUDIO
    TITLE "P1Q_t_0378-0387_39"
    INDEX 01 01:01:59
  TRACK 40 AUDIO
    TITLE "P1Q_t_0378-0387_40"
    INDEX 01 01:04:20
  TRACK 41 AUDIO
    TITLE "P1Q_t_0378-0387_41"
    INDEX 01 01:04:40
  TRACK 42 AUDIO
    TITLE "P1Q_t_0378-0387_42"
    INDEX 01 01:09:31
  TRACK 43 AUDIO
    TITLE "P1Q_t_0378-0387_43"
    INDEX 01 01:10:03
  TRACK 44 AUDIO
    TITLE "P1Q_t_0378-0387_44"
    INDEX 01 01:11:14
  TRACK 45 AUDIO
    TITLE "P1Q_t_0378-0387_45"
    INDEX 01 01:11:36
  TRACK 46 AUDIO
    TITLE "P1Q_t_0378-0387_46"
    INDEX 01 01:13:68
  TRACK 47 AUDIO
    TITLE "P1Q_t_0378-0387_47"
    INDEX 01 01:14:15
  TRACK 48 AUDIO
    TITLE "P1Q_t_0378-0387_48"
    INDEX 01 01:18:59
  TRACK 49 AUDIO
    TITLE "P1Q_t_0378-0387_49"
    INDEX 01 01:19:29
  TRACK 50 AUDIO
    TITLE "P1Q_t_0378-0387_50"
    INDEX 01 01:20:37
  TRACK 51 AUDIO
    TITLE "P1Q_t_0378-0387_51"
    INDEX 01 01:20:54
  TRACK 52 AUDIO
    TITLE "P1Q_t_0378-0387_52"
    INDEX 01 01:24:72
  TRACK 53 AUDIO
    TITLE "P1Q_t_0378-0387_53"
    INDEX 01 01:25:22
  TRACK 54 AUDIO
    TITLE "P1Q_t_0378-0387_54"
    INDEX 01 01:30:12
  TRACK 55 AUDIO
    TITLE "P1Q_t_0378-0387_55"
    INDEX 01 01:30:57
  TRACK 56 AUDIO
    TITLE "P1Q_t_0378-0387_56"
    INDEX 01 01:32:09
  TRACK 57 AUDIO
    TITLE "P1Q_t_0378-0387_57"
    INDEX 01 01:32:30
  TRACK 58 AUDIO
    TITLE "P1Q_t_0378-0387_58"
    INDEX 01 01:35:25
  TRACK 59 AUDIO
    TITLE "P1Q_t_0378-0387_59"
    INDEX 01 01:35:44
  TRACK 60 AUDIO
    TITLE "P1Q_t_0378-0387_60"
    INDEX 01 01:41:23
